<svg xmlns="http://www.w3.org/2000/svg" xmlns:xlink="http://www.w3.org/1999/xlink" preserveAspectRatio="xMidYMid" width="14" height="16" viewBox="0 0 14 16">
  <defs>
  </defs>
  <path d="M12.444,16.000 L11.667,16.000 L9.722,13.600 L7.778,16.000 L6.222,16.000 L4.278,13.600 L2.333,16.000 L1.556,16.000 C0.700,16.000 -0.000,15.280 -0.000,14.400 L-0.000,1.600 C-0.000,0.720 0.700,-0.000 1.556,-0.000 L12.444,-0.000 C13.300,-0.000 14.000,0.720 14.000,1.600 L14.000,14.400 C14.000,15.280 13.300,16.000 12.444,16.000 ZM9.240,3.000 L4.760,3.000 C4.312,3.000 4.013,3.401 4.013,4.004 C4.013,4.606 4.312,5.008 4.760,5.008 L9.240,5.008 C9.688,5.008 9.987,4.606 9.987,4.004 C9.987,3.401 9.688,3.000 9.240,3.000 ZM9.240,7.015 L4.760,7.015 C4.312,7.015 4.013,7.409 4.013,8.000 C4.013,8.591 4.312,8.984 4.760,8.984 L9.240,8.984 C9.688,8.984 9.987,8.591 9.987,8.000 C9.987,7.409 9.688,7.015 9.240,7.015 Z" class="cls-1"/>
</svg>
