<svg xmlns="http://www.w3.org/2000/svg" xmlns:xlink="http://www.w3.org/1999/xlink" preserveAspectRatio="xMidYMid" width="14" height="14" viewBox="0 0 14 14">
  <defs>
  </defs>
  <path d="M11.000,8.500 C11.000,8.224 11.224,8.000 11.500,8.000 C11.776,8.000 12.000,8.224 12.000,8.500 C12.000,8.776 11.776,9.000 11.500,9.000 C11.224,9.000 11.000,8.776 11.000,8.500 ZM14.000,13.000 C14.000,13.552 13.552,14.000 13.000,14.000 L1.000,14.000 C0.448,14.000 -0.000,13.552 -0.000,13.000 L-0.000,4.000 C-0.000,3.448 0.448,3.000 1.000,3.000 L13.000,3.000 C13.552,3.000 14.000,3.448 14.000,4.000 L14.000,7.000 L10.500,7.000 C9.672,7.000 9.000,7.672 9.000,8.500 C9.000,9.328 9.672,10.000 10.500,10.000 L14.000,10.000 L14.000,13.000 ZM9.458,0.141 C10.067,-0.160 10.808,0.036 11.194,0.586 L11.996,2.011 L6.015,2.011 L9.458,0.141 Z" class="cls-1"/>
</svg>
