<svg xmlns="http://www.w3.org/2000/svg" xmlns:xlink="http://www.w3.org/1999/xlink" preserveAspectRatio="xMidYMid" width="14" height="16" viewBox="0 0 14 16">
  <defs>
  </defs>
  <path d="M10.000,16.000 L2.000,16.000 C0.895,16.000 -0.000,15.104 -0.000,14.000 L-0.000,2.000 C-0.000,0.895 0.895,-0.000 2.000,-0.000 L12.000,-0.000 C13.105,-0.000 14.000,0.895 14.000,2.000 L14.000,12.000 L10.000,16.000 ZM2.500,12.000 L6.500,12.000 C6.776,12.000 7.000,11.776 7.000,11.500 C7.000,11.224 6.776,11.000 6.500,11.000 L2.500,11.000 C2.224,11.000 2.000,11.224 2.000,11.500 C2.000,11.776 2.224,12.000 2.500,12.000 ZM2.500,8.000 L9.500,8.000 C9.776,8.000 10.000,7.776 10.000,7.500 C10.000,7.224 9.776,7.000 9.500,7.000 L2.500,7.000 C2.224,7.000 2.000,7.224 2.000,7.500 C2.000,7.776 2.224,8.000 2.500,8.000 ZM11.500,3.000 L2.500,3.000 C2.224,3.000 2.000,3.224 2.000,3.500 C2.000,3.776 2.224,4.000 2.500,4.000 L11.500,4.000 C11.776,4.000 12.000,3.776 12.000,3.500 C12.000,3.224 11.776,3.000 11.500,3.000 Z" class="cls-1"/>
</svg>
