<svg xmlns="http://www.w3.org/2000/svg" xmlns:xlink="http://www.w3.org/1999/xlink" preserveAspectRatio="xMidYMid" width="14" height="16" viewBox="0 0 14 16">
  <defs>
  </defs>
  <path d="M13.185,11.597 C13.339,11.590 13.491,11.629 13.621,11.712 C13.092,11.381 12.000,11.662 12.000,10.000 L12.000,6.000 C12.000,3.393 10.837,1.860 8.251,1.326 L8.251,1.197 C8.251,0.534 7.679,-0.000 7.000,-0.000 L7.019,-0.001 C6.339,-0.001 5.786,0.536 5.786,1.199 L5.786,1.324 C3.198,1.860 2.000,3.392 2.000,6.000 L2.000,10.000 C2.000,11.769 0.924,11.393 0.415,11.713 C0.543,11.631 0.697,11.590 0.851,11.599 C0.398,11.583 0.017,11.928 0.001,12.369 C-0.016,12.810 0.548,12.984 1.000,13.000 L13.000,13.000 C13.452,13.002 14.002,12.841 14.004,12.399 C14.006,11.956 13.639,11.597 13.185,11.597 L13.185,11.597 ZM7.021,15.999 C8.156,15.999 9.076,15.103 9.076,14.000 L4.964,14.000 C4.964,15.103 5.883,15.999 7.021,15.999 L7.021,15.999 Z" class="cls-1"/>
</svg>
