<svg xmlns="http://www.w3.org/2000/svg" xmlns:xlink="http://www.w3.org/1999/xlink" preserveAspectRatio="xMidYMid" width="14" height="14" viewBox="0 0 14 14">
  <defs>
  </defs>
  <path d="M12.000,14.000 L2.000,14.000 C0.895,14.000 -0.000,13.104 -0.000,12.000 L-0.000,2.000 C-0.000,0.895 0.895,-0.000 2.000,-0.000 L12.000,-0.000 C13.105,-0.000 14.000,0.895 14.000,2.000 L14.000,12.000 C14.000,13.104 13.105,14.000 12.000,14.000 ZM3.290,1.943 C2.946,2.037 2.618,2.115 2.306,2.177 C2.743,3.240 3.009,4.037 3.103,4.568 C3.415,4.380 3.759,4.271 4.134,4.240 C3.977,3.740 3.696,2.974 3.290,1.943 ZM11.000,7.000 C10.968,6.375 11.072,5.146 11.072,4.240 C11.072,3.302 11.087,2.537 11.118,1.943 C11.118,1.943 5.353,1.943 5.111,1.943 C4.809,2.536 4.937,3.407 5.000,4.000 L5.000,9.000 C4.955,9.422 4.828,9.934 4.786,10.072 C5.000,10.000 5.587,11.130 5.587,11.130 C6.440,10.687 7.199,10.372 8.000,10.000 C7.875,9.656 7.993,9.162 7.931,8.880 C7.493,9.099 6.625,9.656 6.000,10.000 L6.000,7.000 L8.000,7.000 C7.749,7.219 7.218,7.812 7.000,8.000 C7.656,8.469 9.234,9.422 10.000,10.000 C10.765,10.578 10.406,10.469 11.000,11.000 C11.187,10.688 11.618,10.318 11.962,10.099 C11.681,9.881 11.000,9.719 10.000,9.000 C10.281,8.688 11.125,8.562 12.000,8.000 C11.593,7.812 11.281,7.219 11.000,7.000 ZM12.000,12.000 C10.947,12.287 9.614,12.180 8.000,12.000 C6.120,11.790 4.759,11.209 3.759,10.427 L3.759,7.474 C3.759,7.037 3.937,6.562 4.000,6.000 L2.915,5.974 C2.509,5.974 2.056,5.959 1.556,5.927 L1.556,6.912 C2.025,6.881 2.462,6.865 2.868,6.865 L3.000,10.000 C2.531,10.281 1.884,11.334 1.322,11.833 C1.571,12.052 1.806,12.333 2.025,12.677 C2.400,12.239 2.743,11.904 3.056,11.669 C3.368,11.435 3.766,11.459 4.251,11.740 C4.735,12.021 5.984,12.859 7.000,13.000 C8.015,13.141 9.187,13.031 10.000,13.000 C10.812,12.968 10.875,13.094 12.000,13.000 C12.031,12.593 11.843,12.375 12.000,12.000 ZM9.384,8.271 C9.103,8.021 8.844,7.562 8.000,7.000 L11.000,7.000 C10.531,7.625 9.821,7.896 9.384,8.271 ZM6.000,5.000 L10.000,5.000 L10.000,6.000 L6.000,6.000 L6.000,5.000 ZM6.000,3.000 L10.000,3.000 L10.000,4.000 L6.000,4.000 L6.000,3.000 Z" class="cls-1"/>
</svg>
