<svg xmlns="http://www.w3.org/2000/svg" xmlns:xlink="http://www.w3.org/1999/xlink" preserveAspectRatio="xMidYMid" width="14" height="14" viewBox="0 0 14 14">
  <defs>
  </defs>
  <path d="M6.990,10.006 C7.404,10.006 7.794,9.927 8.163,9.771 C8.530,9.614 8.849,9.397 9.122,9.122 C9.393,8.844 9.605,8.526 9.763,8.162 C9.918,7.798 9.997,7.409 9.997,6.994 C9.997,6.579 9.918,6.190 9.763,5.827 C9.607,5.463 9.393,5.145 9.122,4.874 C8.851,4.603 8.532,4.389 8.163,4.233 C7.796,4.076 7.404,3.997 6.990,3.997 C6.577,3.997 6.188,4.075 5.825,4.233 C5.462,4.389 5.144,4.603 4.874,4.876 C4.603,5.147 4.389,5.466 4.233,5.829 C4.078,6.191 3.999,6.580 3.999,6.996 C3.999,7.411 4.078,7.800 4.233,8.164 C4.389,8.526 4.603,8.847 4.874,9.123 C5.145,9.400 5.462,9.616 5.825,9.772 C6.186,9.927 6.575,10.006 6.990,10.006 L6.990,10.006 ZM13.950,8.904 C13.968,9.024 13.963,9.169 13.935,9.339 C13.904,9.510 13.855,9.683 13.785,9.857 C13.714,10.031 13.629,10.190 13.530,10.331 C13.430,10.471 13.321,10.572 13.199,10.633 C13.080,10.694 12.974,10.724 12.886,10.724 C12.795,10.724 12.695,10.706 12.586,10.665 C12.486,10.635 12.360,10.609 12.210,10.583 C12.060,10.557 11.906,10.550 11.751,10.567 C11.596,10.581 11.441,10.615 11.287,10.663 C11.132,10.714 10.999,10.800 10.889,10.920 C10.650,11.171 10.510,11.456 10.469,11.775 C10.431,12.096 10.474,12.401 10.604,12.693 C10.704,12.893 10.690,13.094 10.561,13.295 C10.500,13.374 10.404,13.458 10.274,13.541 C10.144,13.627 10.001,13.705 9.847,13.775 C9.692,13.846 9.530,13.902 9.360,13.941 C9.190,13.981 9.039,14.000 8.910,14.000 C8.819,14.000 8.734,13.966 8.655,13.895 C8.576,13.824 8.522,13.750 8.491,13.669 L8.478,13.669 C8.368,13.359 8.179,13.091 7.915,12.865 C7.648,12.639 7.343,12.526 6.992,12.526 C6.652,12.526 6.345,12.639 6.070,12.865 C5.795,13.091 5.603,13.354 5.492,13.654 C5.441,13.774 5.367,13.862 5.266,13.917 C5.166,13.971 5.057,14.000 4.935,14.000 C4.795,14.000 4.638,13.975 4.463,13.926 C4.288,13.873 4.112,13.813 3.937,13.738 C3.762,13.664 3.603,13.576 3.463,13.475 C3.323,13.376 3.219,13.275 3.150,13.173 C3.099,13.103 3.072,13.022 3.067,12.927 C3.062,12.833 3.099,12.699 3.180,12.529 C3.289,12.298 3.333,12.035 3.308,11.740 C3.283,11.444 3.155,11.171 2.925,10.920 C2.785,10.770 2.615,10.674 2.416,10.626 C2.215,10.581 2.025,10.564 1.846,10.574 C1.637,10.584 1.421,10.625 1.202,10.694 C1.062,10.733 0.922,10.722 0.782,10.662 C0.672,10.621 0.570,10.528 0.473,10.383 C0.377,10.238 0.293,10.078 0.219,9.903 C0.143,9.727 0.086,9.547 0.045,9.361 C0.005,9.176 -0.005,9.024 0.015,8.904 C0.047,8.683 0.146,8.543 0.317,8.483 C0.617,8.363 0.887,8.165 1.126,7.889 C1.367,7.614 1.487,7.305 1.487,6.964 C1.487,6.614 1.367,6.308 1.126,6.047 C0.885,5.787 0.617,5.596 0.317,5.477 C0.226,5.446 0.151,5.374 0.091,5.257 C0.032,5.141 -0.000,5.023 -0.000,4.905 C-0.000,4.775 0.020,4.630 0.060,4.470 C0.101,4.309 0.153,4.154 0.219,4.002 C0.283,3.852 0.359,3.716 0.445,3.589 C0.529,3.464 0.622,3.372 0.723,3.311 C0.802,3.260 0.882,3.240 0.956,3.252 C1.030,3.262 1.114,3.282 1.204,3.311 C1.504,3.431 1.816,3.469 2.141,3.424 C2.467,3.378 2.753,3.237 3.004,2.995 C3.124,2.876 3.212,2.729 3.268,2.552 C3.322,2.376 3.359,2.203 3.372,2.034 C3.386,1.864 3.386,1.708 3.372,1.568 C3.357,1.429 3.345,1.327 3.335,1.267 C3.315,1.206 3.298,1.137 3.281,1.056 C3.268,0.976 3.274,0.906 3.305,0.847 C3.364,0.707 3.472,0.583 3.627,0.477 C3.782,0.373 3.949,0.285 4.131,0.214 C4.313,0.143 4.485,0.091 4.657,0.056 C4.826,0.022 4.962,0.003 5.062,0.003 C5.192,0.003 5.294,0.045 5.370,0.131 C5.446,0.217 5.498,0.305 5.529,0.395 C5.638,0.664 5.819,0.904 6.070,1.108 C6.320,1.312 6.616,1.415 6.955,1.415 C7.306,1.415 7.615,1.317 7.886,1.122 C8.156,0.926 8.346,0.678 8.456,0.376 C8.497,0.297 8.559,0.214 8.645,0.128 C8.729,0.044 8.817,-0.000 8.906,-0.000 C9.046,-0.000 9.200,0.020 9.365,0.059 C9.529,0.099 9.692,0.153 9.852,0.224 C10.012,0.295 10.161,0.383 10.294,0.494 C10.427,0.605 10.537,0.725 10.616,0.855 C10.667,0.934 10.682,1.022 10.662,1.118 C10.643,1.213 10.621,1.282 10.601,1.321 C10.471,1.611 10.432,1.918 10.483,2.238 C10.534,2.560 10.679,2.840 10.918,3.080 C11.159,3.321 11.452,3.453 11.803,3.478 C12.154,3.503 12.479,3.446 12.780,3.304 C12.859,3.254 12.957,3.233 13.071,3.245 C13.188,3.255 13.284,3.299 13.363,3.380 C13.513,3.520 13.645,3.733 13.761,4.019 C13.877,4.304 13.953,4.593 13.994,4.883 C14.012,5.053 13.985,5.187 13.911,5.281 C13.835,5.375 13.758,5.440 13.678,5.468 C13.368,5.580 13.103,5.772 12.882,6.047 C12.657,6.332 12.547,6.644 12.547,6.995 C12.547,7.337 12.640,7.634 12.823,7.890 C13.007,8.147 13.252,8.329 13.552,8.439 C13.623,8.479 13.682,8.520 13.732,8.558 C13.837,8.648 13.911,8.764 13.950,8.904 L13.950,8.904 Z" class="cls-1"/>
</svg>
