<svg xmlns="http://www.w3.org/2000/svg" xmlns:xlink="http://www.w3.org/1999/xlink" preserveAspectRatio="xMidYMid" width="14" height="14" viewBox="0 0 14 14">
  <defs>
  </defs>
  <path d="M13.521,10.674 C13.505,10.651 13.488,10.630 13.468,10.611 L9.636,6.687 C9.801,6.182 9.891,5.639 9.891,5.076 C9.891,5.046 9.891,5.017 9.890,4.987 C9.890,4.975 9.891,4.963 9.891,4.951 C9.891,4.941 9.891,4.929 9.890,4.918 L9.891,4.918 C9.810,2.193 7.628,0.009 4.947,0.009 L4.944,0.009 C4.171,0.009 3.440,0.192 2.787,0.516 L2.787,0.517 C2.786,0.517 2.784,0.519 2.783,0.519 L2.786,0.523 C2.729,0.551 2.675,0.590 2.627,0.639 C2.395,0.877 2.395,1.262 2.627,1.499 L4.895,3.822 L3.827,4.916 L1.528,2.556 C1.296,2.318 0.920,2.318 0.688,2.556 C0.644,2.600 0.608,2.651 0.580,2.706 L0.576,2.703 C0.209,3.410 -0.000,4.219 -0.000,5.076 C-0.000,7.874 2.215,10.143 4.947,10.143 C5.683,10.143 6.381,9.978 7.009,9.684 L10.592,13.354 L10.591,13.356 C10.637,13.408 10.686,13.457 10.739,13.503 L10.800,13.565 C10.858,13.625 10.926,13.671 10.998,13.700 C11.299,13.892 11.654,14.002 12.034,14.002 C13.119,14.002 14.000,13.100 14.000,11.989 C14.000,11.486 13.820,11.027 13.521,10.674 L13.521,10.674 Z" class="cls-1"/>
</svg>
