<svg xmlns="http://www.w3.org/2000/svg" xmlns:xlink="http://www.w3.org/1999/xlink" preserveAspectRatio="xMidYMid" width="14" height="16" viewBox="0 0 14 16">
  <defs>
  </defs>
  <path d="M10.738,12.512 C11.419,13.334 11.791,14.356 11.792,15.410 C11.792,15.569 11.727,15.721 11.611,15.833 C11.495,15.945 11.338,16.008 11.174,16.008 L2.831,16.008 C2.667,16.008 2.510,15.945 2.394,15.833 C2.278,15.721 2.213,15.569 2.213,15.410 C2.214,14.356 2.586,13.334 3.267,12.512 C0.421,10.775 -0.745,7.324 0.489,4.295 C1.723,1.265 5.009,-0.487 8.314,0.122 C11.620,0.731 14.011,3.529 14.008,6.785 C14.006,9.111 12.771,11.273 10.738,12.512 ZM4.656,11.457 C5.261,12.092 6.112,12.454 7.005,12.454 C7.897,12.454 8.748,12.092 9.353,11.457 C9.584,11.213 9.566,10.834 9.313,10.610 C9.061,10.387 8.669,10.404 8.438,10.649 C8.069,11.039 7.547,11.261 7.000,11.261 C6.454,11.261 5.932,11.039 5.563,10.649 C5.419,10.473 5.185,10.390 4.958,10.434 C4.731,10.478 4.548,10.641 4.484,10.856 C4.421,11.072 4.487,11.304 4.656,11.457 ZM8.174,2.720 C7.033,2.262 5.720,2.514 4.846,3.359 C3.973,4.204 3.712,5.475 4.184,6.579 C4.656,7.683 5.770,8.403 7.005,8.403 C8.690,8.401 10.055,7.080 10.057,5.450 C10.058,4.255 9.314,3.177 8.174,2.720 ZM7.700,7.074 C7.021,7.346 6.239,7.196 5.720,6.693 C5.200,6.190 5.045,5.434 5.326,4.777 C5.607,4.120 6.270,3.691 7.005,3.691 C8.008,3.692 8.820,4.479 8.821,5.450 C8.821,6.161 8.379,6.802 7.700,7.074 Z" class="cls-1"/>
</svg>
